<svg id="Calque_1" data-name="Calque 1" xmlns="http://www.w3.org/2000/svg" viewBox="0 0 241.92 39.58"><defs><style>.cls-1{fill:#1d1d1b;}</style></defs><title>beurktionary</title><path class="cls-1" d="M22.6,3.63A7.78,7.78,0,0,1,24,8.28a6.77,6.77,0,0,1-1.41,4.48,7.23,7.23,0,0,1-2.32,1.73,6.81,6.81,0,0,1,3.52,2.69A8,8,0,0,1,25,21.64a8.92,8.92,0,0,1-1.35,4.85,8.58,8.58,0,0,1-2.16,2.4A8.3,8.3,0,0,1,18,30.41a20.7,20.7,0,0,1-4.3.42H0V.39H14.71Q20.28.48,22.6,3.63ZM6.07,5.68v6.71h7.39a6.08,6.08,0,0,0,3.23-.76A2.87,2.87,0,0,0,17.92,9a2.73,2.73,0,0,0-1.63-2.81,11.39,11.39,0,0,0-3.6-.47Zm0,11.74v8.12h7.39A7.12,7.12,0,0,0,16.54,25c1.33-.66,2-1.92,2-3.8a3.27,3.27,0,0,0-1.94-3.26,7.78,7.78,0,0,0-3-.52Z"/><path class="cls-1" d="M40.67,0h5.39V4.89H40.67ZM32.42,0h5.39V4.89H32.42Zm12.2,8.77a9.13,9.13,0,0,1,3.89,3.34,11.1,11.1,0,0,1,1.8,4.65,29.81,29.81,0,0,1,.19,4.47H34.11q.14,3.38,2.35,4.74a5.94,5.94,0,0,0,3.25.85,4.59,4.59,0,0,0,4.48-2.58h6A7.36,7.36,0,0,1,48,28.31q-3,3.29-8.46,3.28a12.25,12.25,0,0,1-7.93-2.77q-3.44-2.78-3.44-9,0-5.85,3.1-9a10.86,10.86,0,0,1,8-3.12A12.84,12.84,0,0,1,44.62,8.77Zm-8.8,5.09a6.18,6.18,0,0,0-1.57,3.48H44.39a4.91,4.91,0,0,0-1.57-3.55,5.14,5.14,0,0,0-3.49-1.22A4.65,4.65,0,0,0,35.82,13.86Z"/><path class="cls-1" d="M59.34,8.32V21.88a7.19,7.19,0,0,0,.45,2.9,3.13,3.13,0,0,0,3.15,1.71A4.09,4.09,0,0,0,67,24.05a8.72,8.72,0,0,0,.58-3.49V8.32h6V30.83H67.87V27.65a6.22,6.22,0,0,0-.41.61,4.08,4.08,0,0,1-.79.91A8.32,8.32,0,0,1,64,30.87a9.19,9.19,0,0,1-3,.45q-5,0-6.71-3.59a13.71,13.71,0,0,1-1-5.85V8.32Z"/><path class="cls-1" d="M91.81,7.79l.5,0v6c-.37,0-.7-.07-1-.08l-.7,0q-3.56,0-4.77,2.31a9.07,9.07,0,0,0-.68,4V30.83H79.24V8.32h5.62v3.92a12.53,12.53,0,0,1,2.37-3.07,6.44,6.44,0,0,1,4.3-1.39Z"/><path class="cls-1" d="M95.7.5h5.78V16.91l7.42-8.49h7.32l-8.07,8.39,8.38,14h-7.16l-5.45-9.62-2.44,2.53v7.09H95.7Z"/><path class="cls-1" d="M120,2.54h3.76V8.71h3.53v3h-3.53V26.18a1.57,1.57,0,0,0,.78,1.55A3.36,3.36,0,0,0,126,28l.58,0c.2,0,.44,0,.72-.07v3a8.24,8.24,0,0,1-1.33.26,11.74,11.74,0,0,1-1.5.09c-1.74,0-2.91-.45-3.53-1.34a5.89,5.89,0,0,1-.93-3.45V11.75h-3v-3h3Z"/><path class="cls-1" d="M131,.5h3.78V4.71H131Zm0,8.32h3.78v22H131Z"/><path class="cls-1" d="M156.4,10.92q2.92,2.85,2.93,8.38a14.41,14.41,0,0,1-2.58,8.82q-2.58,3.49-8,3.49a9,9,0,0,1-7.19-3.08,12.24,12.24,0,0,1-2.67-8.29q0-5.56,2.81-8.87a9.4,9.4,0,0,1,7.54-3.3A9.91,9.91,0,0,1,156.4,10.92Zm-2.31,14.7a14,14,0,0,0,1.36-6.22,11.2,11.2,0,0,0-1-5,5.5,5.5,0,0,0-5.35-3.06,5.27,5.27,0,0,0-4.9,2.6,12.16,12.16,0,0,0-1.53,6.27,10.58,10.58,0,0,0,1.53,5.88,5.37,5.37,0,0,0,4.86,2.35Q152.74,28.41,154.09,25.62Z"/><path class="cls-1" d="M162.87,8.41h3.53v3.13a9.92,9.92,0,0,1,3.33-2.78,8.78,8.78,0,0,1,3.9-.85c3.14,0,5.26,1.1,6.36,3.28a11.59,11.59,0,0,1,.91,5.14V30.52h-3.78V16.58a7.53,7.53,0,0,0-.6-3.26,3.63,3.63,0,0,0-3.59-2.07,7.27,7.27,0,0,0-2.17.27,5.61,5.61,0,0,0-2.68,1.82,5.39,5.39,0,0,0-1.21,2.26,15,15,0,0,0-.28,3.34V30.52h-3.72Z"/><path class="cls-1" d="M198.24,17.14A2,2,0,0,0,200,16.07a3.25,3.25,0,0,0,.25-1.43,3,3,0,0,0-1.35-2.77A7.12,7.12,0,0,0,195,11c-1.94,0-3.31.53-4.12,1.57a5.22,5.22,0,0,0-.89,2.6h-3.47q.11-4.11,2.65-5.71a10.86,10.86,0,0,1,5.91-1.6,11.91,11.91,0,0,1,6.33,1.49A5,5,0,0,1,203.82,14V26.72a1.6,1.6,0,0,0,.23.93,1.18,1.18,0,0,0,1,.35l.55,0,.66-.09v2.74a9.22,9.22,0,0,1-1.32.31,9.88,9.88,0,0,1-1.24.06,3,3,0,0,1-2.78-1.36,5.05,5.05,0,0,1-.64-2A9.51,9.51,0,0,1,197,30.17a10.08,10.08,0,0,1-4.68,1.09,7,7,0,0,1-5-1.86,6.21,6.21,0,0,1-1.95-4.68A6,6,0,0,1,187.28,20a9.19,9.19,0,0,1,5-2.08Zm-7.82,10a4.39,4.39,0,0,0,2.78.92,8.4,8.4,0,0,0,3.8-.91,5.09,5.09,0,0,0,3.1-4.92v-3a6.53,6.53,0,0,1-1.75.73,15.23,15.23,0,0,1-2.1.41l-2.25.29a8.83,8.83,0,0,0-3,.84,3.29,3.29,0,0,0-1.72,3.09A3.05,3.05,0,0,0,190.42,27.18Z"/><path class="cls-1" d="M210,8.41h3.53v3.82a8.43,8.43,0,0,1,2.13-2.72,5.5,5.5,0,0,1,3.9-1.6l.35,0,.85.08v3.93l-.61-.09-.61,0a5.31,5.31,0,0,0-4.32,1.81,6.31,6.31,0,0,0-1.5,4.16V30.52H210Z"/><path class="cls-1" d="M237.81,8.41h4.11q-.78,2.12-3.49,9.7c-1.35,3.81-2.48,6.9-3.39,9.3q-3.21,8.46-4.53,10.31c-.88,1.24-2.4,1.86-4.54,1.86a9.14,9.14,0,0,1-1.21-.06,9.3,9.3,0,0,1-1-.23V35.91a12.35,12.35,0,0,0,1.4.33,5.61,5.61,0,0,0,.76.06A2.65,2.65,0,0,0,227.4,36a3.36,3.36,0,0,0,.81-.83c.07-.11.32-.68.74-1.69s.74-1.78.93-2.27L221.71,8.41h4.21l5.92,18Z"/></svg>