<?xml version="1.0" encoding="utf-8"?>
<!-- Generator: Adobe Illustrator 23.0.6, SVG Export Plug-In . SVG Version: 6.00 Build 0)  -->
<svg version="1.1" id="Calque_1" xmlns="http://www.w3.org/2000/svg" xmlns:xlink="http://www.w3.org/1999/xlink" x="0px" y="0px"
	 viewBox="0 0 111.8 19" style="enable-background:new 0 0 111.8 19;" xml:space="preserve">
<style type="text/css">
	.st0{fill:#FFFFFF;}
</style>
<path class="st0" d="M10.9,2.1c0.4,0.6,0.7,1.4,0.6,2.1c0,0.7-0.2,1.5-0.6,2.1c-0.3,0.3-0.7,0.6-1.1,0.8c0.7,0.2,1.2,0.7,1.6,1.2
	c0.4,0.6,0.6,1.3,0.6,2c0,0.8-0.2,1.6-0.6,2.2c-0.3,0.4-0.6,0.8-1,1.1c-0.5,0.4-1,0.6-1.6,0.7c-0.6,0.1-1.3,0.2-2,0.2H0.6V0.6h6.7
	C9,0.6,10.2,1.1,10.9,2.1z M3.4,3v3.1h3.4c0.5,0,1-0.1,1.5-0.3C8.6,5.5,8.8,5,8.8,4.6C8.8,4,8.5,3.5,8,3.3S6.9,3,6.4,3.1L3.4,3z
	 M3.4,8.4v3.7h3.4c0.5,0,1-0.1,1.4-0.2c0.6-0.3,0.9-0.9,0.9-1.7C9.2,9.6,8.8,9,8.2,8.7C7.7,8.5,7.3,8.4,6.8,8.4H3.4z"/>
<path class="st0" d="M19.2,0.4h2.5v2.2h-2.5V0.4z M15.4,0.4h2.5v2.2h-2.5V0.4z M21,4.5c0.7,0.3,1.3,0.9,1.8,1.5
	c0.4,0.6,0.7,1.4,0.8,2.1c0.1,0.7,0.1,1.4,0.1,2h-7.5c0,1,0.4,1.8,1.1,2.2c0.4,0.3,1,0.4,1.5,0.4c0.9,0.1,1.7-0.4,2.1-1.2h2.7
	c-0.1,0.7-0.5,1.4-1,1.9c-0.9,1-2.2,1.5-3.9,1.5c-1.3,0-2.6-0.4-3.6-1.3c-1.1-0.8-1.6-2.2-1.6-4.1c0-1.8,0.5-3.2,1.4-4.1
	c1-1,2.3-1.5,3.7-1.4C19.4,4,20.2,4.1,21,4.5z M17,6.8c-0.4,0.4-0.7,1-0.7,1.6h4.6c0-0.6-0.3-1.2-0.7-1.6c-0.4-0.4-1-0.6-1.6-0.6
	C18,6.2,17.4,6.4,17,6.8z"/>
<path class="st0" d="M27.7,4.2v6.2c0,0.5,0,0.9,0.2,1.3c0.3,0.5,0.8,0.9,1.4,0.8c0.8,0.1,1.5-0.4,1.9-1.1c0.2-0.5,0.3-1.1,0.3-1.6
	V4.2h2.7v10.3h-2.6V13c-0.1,0.1-0.1,0.2-0.2,0.3c-0.1,0.2-0.2,0.3-0.4,0.4c-0.4,0.3-0.8,0.6-1.2,0.8c-0.4,0.1-0.9,0.2-1.4,0.2
	c-1.5,0-2.6-0.5-3.1-1.6c-0.3-0.8-0.5-1.8-0.5-2.7V4.2H27.7z"/>
<path class="st0" d="M42.6,4h0.2v2.7c-0.2,0-0.3,0-0.5,0H42c-1.1,0-1.8,0.4-2.2,1.1c-0.2,0.6-0.3,1.2-0.3,1.8v4.9h-2.7V4.2h2.6V6
	c0.3-0.5,0.7-1,1.1-1.4c0.6-0.4,1.3-0.7,2-0.6H42.6z"/>
<path class="st0" d="M44.4,0.7H47v7.5l3.4-3.9h3.4l-3.7,3.8l3.8,6.4h-3.3l-2.5-4.4L47,11.3v3.2h-2.6V0.7z"/>
<path class="st0" d="M55.5,1.6h1.7v2.8h1.6v1.4h-1.6v6.6c0,0.3,0.1,0.6,0.4,0.7c0.2,0.1,0.4,0.1,0.7,0.1h0.3c0.1,0,0.2,0,0.3,0v1.4
	c-0.2,0.1-0.4,0.1-0.6,0.1c-0.2,0-0.5,0-0.7,0c-0.8,0-1.3-0.2-1.6-0.6c-0.3-0.5-0.5-1-0.4-1.6V5.8h-1.4V4.4h1.4L55.5,1.6z"/>
<path class="st0" d="M60.6,0.7h1.7v1.9h-1.7V0.7z M60.6,4.5h1.7v10.1h-1.7V4.5z"/>
<path class="st0" d="M72.2,5.4c0.9,0.9,1.3,2.1,1.3,3.8c0.1,1.4-0.4,2.9-1.2,4c-0.8,1.1-2,1.6-3.7,1.6c-1.3,0.1-2.5-0.5-3.3-1.4
	c-0.9-1.1-1.3-2.4-1.2-3.8c0-1.7,0.4-3.1,1.3-4.1s2.1-1.6,3.5-1.5C70.1,4.1,71.3,4.6,72.2,5.4z M71.1,12.2c0.4-0.9,0.6-1.9,0.6-2.8
	c0-0.8-0.1-1.6-0.5-2.3c-0.5-0.9-1.4-1.5-2.4-1.4c-0.9-0.1-1.8,0.4-2.2,1.2c-0.5,0.9-0.7,1.9-0.7,2.9c0,0.9,0.2,1.9,0.7,2.7
	c0.5,0.7,1.3,1.1,2.2,1.1C69.9,13.5,70.7,13,71.1,12.2z"/>
<path class="st0" d="M75.1,4.3h1.6v1.4c0.4-0.5,0.9-1,1.5-1.3C78.8,4.1,79.4,4,80,4c1.4,0,2.4,0.5,2.9,1.5c0.3,0.7,0.5,1.5,0.4,2.4
	v6.5h-1.7V8c0-0.5-0.1-1-0.3-1.5c-0.3-0.6-1-1-1.6-0.9c-0.3,0-0.7,0-1,0.1c-0.5,0.2-0.9,0.4-1.2,0.8c-0.3,0.3-0.5,0.7-0.6,1
	c-0.1,0.5-0.1,1-0.1,1.5v5.3h-1.7L75.1,4.3L75.1,4.3z"/>
<path class="st0" d="M91.3,8.3c0.3,0,0.6-0.2,0.8-0.5c0.1-0.2,0.1-0.4,0.1-0.7c0-0.5-0.2-1-0.6-1.3c-0.5-0.3-1.2-0.4-1.8-0.4
	c-0.9,0-1.5,0.2-1.9,0.7c-0.2,0.4-0.4,0.8-0.4,1.2H86c0-1.3,0.4-2.1,1.2-2.6C88,4.3,88.9,4,89.9,4s2,0.2,2.9,0.7
	C93.5,5.2,94,6,93.9,6.8v5.8c0,0.1,0,0.3,0.1,0.4c0.1,0.1,0.3,0.2,0.5,0.2h0.3h0.3v1.3c-0.2,0.1-0.4,0.1-0.6,0.1s-0.4,0-0.6,0
	c-0.5,0-1-0.2-1.3-0.6c-0.2-0.3-0.3-0.6-0.3-0.9c-0.4,0.5-0.9,0.9-1.5,1.1c-0.7,0.3-1.4,0.5-2.1,0.5c-0.8,0-1.7-0.3-2.3-0.9
	c-0.6-0.6-0.9-1.3-0.9-2.1s0.3-1.6,0.9-2.2c0.7-0.5,1.4-0.9,2.3-1L91.3,8.3z M87.8,12.9c0.4,0.3,0.8,0.4,1.3,0.4
	c0.6,0,1.2-0.1,1.7-0.4c0.9-0.4,1.5-1.3,1.4-2.3V9.2c-0.2,0.1-0.5,0.3-0.8,0.3c-0.3,0.1-0.6,0.1-1,0.2l-1,0.1
	c-0.5,0-0.9,0.2-1.4,0.4c-0.5,0.3-0.8,0.8-0.8,1.4C87.2,12.2,87.4,12.6,87.8,12.9L87.8,12.9z"/>
<path class="st0" d="M96.7,4.3h1.6V6c0.2-0.5,0.6-0.9,1-1.2c0.5-0.5,1.1-0.7,1.8-0.7h0.2h0.4v1.8h-0.3h-0.3c-0.8,0-1.5,0.3-2,0.8
	s-0.7,1.2-0.7,1.9v5.8h-1.7V4.3z"/>
<path class="st0" d="M109.5,4.3h1.9c-0.2,0.6-0.8,2.1-1.6,4.4c-0.6,1.7-1.1,3.2-1.6,4.3c-1,2.6-1.7,4.2-2.1,4.7
	c-0.4,0.6-1.1,0.9-2.1,0.9c-0.2,0-0.4,0-0.6,0s-0.3-0.1-0.5-0.1V17c0.2,0.1,0.4,0.1,0.6,0.2c0.1,0,0.2,0,0.3,0c0.2,0,0.5,0,0.7-0.1
	c0.1-0.1,0.3-0.2,0.4-0.4c0-0.1,0.1-0.3,0.3-0.8c0.2-0.5,0.3-0.8,0.4-1l-3.7-10.4h1.9l2.7,8.2L109.5,4.3z"/>
</svg>
